<svg width="273" height="102" viewBox="0 0 273 102" fill="none" xmlns="http://www.w3.org/2000/svg">
  <path d="M44.8884 0.855539C44.3515 0.855978 43.7856 0.856442 43.2552 0.919739C37.0886 1.43414 31.4219 4.05368 27.3863 8.82589C22.9946 14.0193 21.9325 19.491 21.984 26.1026L10.2356 26.0846C9.70933 26.0842 9.16535 26.0691 8.61368 26.0538C7.08087 26.0114 5.48874 25.9673 4.05287 26.2304C3.18694 26.3891 2.43134 26.8103 1.82237 27.4442C0.756171 28.5541 0.730264 29.9561 0.799545 31.3924C0.908818 33.657 1.10332 35.9247 1.29759 38.1896C1.40328 39.4218 1.50899 40.6542 1.60084 41.8847L3.5508 67.0806L4.49957 79.2481C4.54631 79.8488 4.58364 80.4554 4.62112 81.0645C4.75511 83.242 4.89107 85.4514 5.46594 87.5347C6.45907 91.0769 8.42736 94.2684 11.1465 96.7475C13.5229 98.9053 16.3952 100.445 19.5089 101.228C22.1424 101.864 25.2021 101.792 28.0761 101.724C28.9315 101.704 29.7704 101.684 30.5768 101.684L46.3929 101.679L60.206 101.685C60.9607 101.685 61.7375 101.704 62.5239 101.722C65.0753 101.783 67.7347 101.846 70.1189 101.29C73.4729 100.51 76.8672 98.6683 79.3158 96.2405C81.5946 93.98 83.4152 90.962 84.2106 87.8439C84.8194 85.4584 84.9721 82.8418 85.1203 80.3037C85.168 79.4855 85.2153 78.6749 85.2773 77.8833L86.5737 61.1959L88.1902 40.7063C88.2685 39.6943 88.3697 38.6715 88.4711 37.6465C88.6909 35.4248 88.9124 33.1864 88.9074 30.9909C88.905 29.6403 88.6191 28.3805 87.6514 27.3776C86.9854 26.6865 85.8968 26.349 84.9755 26.1987C83.5946 25.9736 82.0803 26.0138 80.6154 26.0526C80.0738 26.067 79.539 26.0812 79.0201 26.0817C75.3253 26.0745 71.6291 26.0876 67.9342 26.1207L67.7754 26.123C67.8622 19.0426 66.286 12.9669 61.1957 7.78853C56.9424 3.38154 51.0897 0.881128 44.9658 0.855469L44.8884 0.855539ZM67.2805 41.2421L67.4797 41.2536C67.4849 41.2671 67.4899 41.2797 67.4946 41.2914C67.4971 41.2975 67.4995 41.3034 67.5019 41.3091C67.5106 41.3302 67.5184 41.3485 67.5253 41.3643L67.5337 41.3834C67.5701 41.4662 67.5768 41.4813 67.575 41.6145C67.5115 50.2966 65.1875 61.4745 59.0257 67.8329C53.3196 73.7211 44.4587 76.6105 36.3781 76.7705C40.1419 69.6915 46.1901 62.978 52.4289 57.9918C53.3937 57.2213 54.4037 56.5249 55.4144 55.828C56.0651 55.3793 56.716 54.9304 57.3554 54.4615C57.9761 54.006 58.8118 53.388 58.8998 52.5574C58.9805 51.7924 58.5736 51.1987 58.0946 50.6522C57.4238 50.2633 56.9326 50.1011 56.1665 50.3259C55.0789 50.6451 53.9829 51.4498 52.9938 52.176C52.7318 52.3684 52.477 52.5555 52.2322 52.7263C44.2327 58.3909 37.5856 65.7548 32.7672 74.2902C32.6047 67.3459 34.1861 61.5286 38.445 55.9428C44.8363 47.56 57.0695 42.6333 67.2805 41.2421ZM5.18221 30.4336L84.5478 30.4323C84.2661 33.1053 84.0837 35.8028 83.9015 38.4959C83.8001 39.9964 83.6986 41.4967 83.5801 42.9903L81.4431 69.7697L80.644 79.6379C80.6084 80.0664 80.5759 80.497 80.5434 80.9286C80.4152 82.631 80.2858 84.3492 79.9573 86.016C79.6201 87.7266 78.9651 89.2136 78.0781 90.7055C77.736 91.2247 77.3645 91.7245 76.9662 92.2022C74.6654 94.9514 70.8887 96.9992 67.3013 97.2705C65.3478 97.418 63.3379 97.3811 61.3469 97.3444C60.4852 97.3286 59.6267 97.3128 58.7776 97.312L42.3119 97.3071L29.2092 97.3132C28.5772 97.3135 27.934 97.3269 27.286 97.3403C25.2988 97.3814 23.2641 97.4235 21.3542 97.0945C18.8492 96.6571 16.5081 95.5538 14.5777 93.8994C12.2653 91.9493 10.6058 89.3382 9.82282 86.4167C9.2872 84.4803 9.15364 82.417 9.0225 80.3911C8.98956 79.8823 8.95677 79.3758 8.91779 78.8742L8.1385 68.8335L5.18221 30.4336ZM69.0429 36.5891L68.9838 36.5954C56.9363 37.989 43.221 42.9443 35.4337 52.7034C30.4285 58.9755 27.694 67.1338 28.5972 75.1673C28.7955 76.9315 29.195 78.6176 29.7709 80.2952C29.7057 80.4618 29.6263 80.6616 29.5358 80.8889C28.5471 83.3739 26.2489 89.1499 27.0482 90.8582C27.2794 91.3518 27.7503 91.6829 28.2609 91.8454C28.4713 91.9114 28.6832 91.9493 28.9022 91.975C29.5771 91.8638 30.201 91.7245 30.6073 91.1209C31.0435 90.4713 31.4902 88.9114 31.8723 87.5772C32.0543 86.9416 32.2218 86.3571 32.3665 85.9463C32.8615 84.5403 33.4235 83.1573 33.9848 81.7763L33.9913 81.7601C34.057 81.5985 34.1227 81.4368 34.1883 81.2752C44.1227 81.3045 54.7333 78.1949 61.9203 71.1037C69.9577 63.1718 71.9823 50.3816 71.9982 39.5578C71.9994 38.7043 71.9407 37.6916 71.3164 37.0389C70.9327 36.6374 70.3548 36.5165 69.8184 36.5283C69.5595 36.534 69.3007 36.5616 69.0429 36.5891ZM43.9224 5.19636C44.3073 5.17254 44.6934 5.15103 45.0782 5.15372C49.7971 5.18683 54.522 7.29734 57.8381 10.623C62.3529 15.1513 63.2766 19.9566 63.2864 26.1029L45.9971 26.0935L26.5421 26.1177C26.3932 20.8345 27.2441 16.0091 30.7102 11.8374C34.0399 7.82983 38.792 5.65468 43.9224 5.19636Z" fill="#030A06" />
  <path d="M67.4796 41.2534L67.2805 41.2419C57.0694 42.6331 44.8362 47.5598 38.4449 55.9426C34.186 61.5284 32.6047 67.3457 32.7672 74.29C37.5856 65.7546 44.2326 58.3907 52.2321 52.7262C52.477 52.5553 52.7318 52.3682 52.9938 52.1758C53.9829 51.4496 55.0789 50.6449 56.1665 50.3257C56.9326 50.1009 57.4238 50.2631 58.0946 50.6521C58.5735 51.1985 58.9804 51.7922 58.8998 52.5572C58.8118 53.3878 57.976 54.0058 57.3553 54.4613C56.716 54.9303 56.065 55.3791 55.4143 55.8278C54.4036 56.5247 53.3936 57.2211 52.4288 57.9916C46.19 62.9778 40.1418 69.6913 36.378 76.7703C44.4587 76.6103 53.3196 73.7209 59.0256 67.8327C65.1875 61.4743 67.5114 50.2964 67.575 41.6143C67.5767 41.4811 67.5701 41.466 67.5336 41.3832C67.5249 41.3633 67.5142 41.3391 67.5018 41.3089C67.495 41.2925 67.4877 41.2741 67.4796 41.2534ZM68.9838 36.5952L69.0429 36.5889C69.3007 36.5614 69.5595 36.5338 69.8183 36.5281C70.3547 36.5163 70.9326 36.6372 71.3163 37.0387C71.9407 37.6914 71.9993 38.7041 71.9981 39.5576C71.9822 50.3814 69.9576 63.1716 61.9202 71.1035C54.7333 78.1947 44.1227 81.3043 34.1882 81.275C34.1227 81.4366 34.057 81.5983 33.9913 81.7599L33.9847 81.7761C33.4234 83.1571 32.8614 84.5401 32.3664 85.9461C32.2217 86.3569 32.0543 86.9414 31.8723 87.5769C31.4902 88.9112 31.0435 90.4711 30.6072 91.1207C30.201 91.7243 29.5771 91.8636 28.9021 91.9748C28.6832 91.9491 28.4713 91.9112 28.2609 91.8452C27.7503 91.6827 27.2794 91.3516 27.0482 90.858C26.2489 89.1497 28.547 83.3737 29.5358 80.8887C29.6262 80.6614 29.7057 80.4616 29.7709 80.295C29.195 78.6174 28.7954 76.9313 28.5971 75.1672C27.6939 67.1336 30.4285 58.9753 35.4337 52.7032C43.2209 42.9441 56.9363 37.9888 68.9838 36.5952Z" fill="#030A06" />
  <path d="M69.0433 36.5889L68.9843 36.5952C56.9368 37.9888 43.2214 42.9441 35.4342 52.7032C30.429 58.9753 27.6944 67.1336 28.5976 75.1672C28.7959 76.9313 29.1955 78.6174 29.7713 80.295C29.7062 80.4616 29.6267 80.6614 29.5363 80.8887C28.5475 83.3737 26.2494 89.1497 27.0487 90.858C27.2799 91.3516 27.7508 91.6827 28.2614 91.8452C28.4718 91.9112 28.6837 91.9491 28.9026 91.9748C29.5776 91.8636 30.2014 91.7243 30.6077 91.1207C31.044 90.4711 31.4905 88.912 31.8726 87.5778C32.0547 86.9419 32.2222 86.3571 32.3669 85.9461C32.8619 84.54 33.4239 83.1572 33.9852 81.7761C33.9874 81.7707 33.9896 81.7653 33.9918 81.7599C34.0575 81.5983 34.1232 81.4366 34.1887 81.275C44.1232 81.3043 54.7338 78.1947 61.9207 71.1035C69.9581 63.1716 71.9827 50.3814 71.9986 39.5576C71.9998 38.7041 71.9412 37.6914 71.3168 37.0387C70.9331 36.6372 70.3552 36.5163 69.8188 36.5281C69.56 36.5338 69.3012 36.5614 69.0433 36.5889ZM67.281 41.2419L67.4801 41.2534C67.4882 41.2741 67.4955 41.2925 67.5023 41.3089C67.5148 41.3393 67.5254 41.3632 67.5341 41.3832C67.5706 41.466 67.5772 41.4811 67.5754 41.6143C67.5119 50.2964 65.1879 61.4743 59.0261 67.8327C53.32 73.7209 44.4591 76.6103 36.3785 76.7703C40.1423 69.6913 46.1905 62.9778 52.4293 57.9916C53.3941 57.2211 54.4041 56.5247 55.4148 55.8278C56.0655 55.3791 56.7165 54.9302 57.3558 54.4613C57.9765 54.0058 58.8123 53.3878 58.9003 52.5572C58.9809 51.7922 58.574 51.1985 58.0951 50.6521C57.4243 50.2631 56.9331 50.1009 56.167 50.3257C55.0794 50.6449 53.9834 51.4496 52.9942 52.1758C52.7322 52.3682 52.4775 52.5553 52.2326 52.7262C44.2331 58.3907 37.5861 65.7546 32.7677 74.29C32.6052 67.3457 34.1865 61.5284 38.4454 55.9426C44.8367 47.5598 57.0699 42.6331 67.281 41.2419Z" fill="#030A06" />
  <path d="M224.168 66.01C223.866 57.4764 216.706 50.8036 208.173 51.1035C199.638 51.402 192.963 58.5656 193.264 67.0992C193.565 75.6341 200.729 82.3083 209.262 82.0071C217.796 81.7044 224.469 74.5422 224.168 66.01ZM208.71 55.7424C211.2 55.8433 213.217 56.4417 215.115 58.1225C217.376 60.1237 218.637 63.015 218.802 66.01C218.968 69.0076 218.025 72.0462 215.984 74.2791C214.12 76.3198 211.794 77.2331 209.069 77.3695C206.582 77.3436 204.531 76.9564 202.569 75.3247C200.278 73.4189 198.983 70.5971 198.739 67.6526C198.486 64.5909 199.288 61.4255 201.321 59.0768C203.337 56.7484 205.718 55.9469 208.71 55.7424Z" fill="#030A06" />
  <path d="M181.197 64.7293C180.18 56.2434 172.469 50.1949 163.986 51.2282C155.525 52.2588 149.496 59.9445 150.51 68.4072C151.525 76.8699 159.199 82.9129 167.664 81.9151C176.151 80.9131 182.214 73.2138 181.197 64.7293ZM164.481 55.8672C166.956 55.6654 169.199 55.9258 171.289 57.364C173.636 58.978 175.112 61.4713 175.6 64.2563C176.154 67.4189 175.634 70.8009 173.731 73.436C172.065 75.7439 169.984 76.889 167.211 77.3306C164.678 77.4602 162.441 77.3061 160.308 75.7971C158.007 74.1762 156.457 71.6966 156.008 68.9184C155.491 65.8539 156.11 62.3273 157.939 59.7782C159.547 57.5384 161.792 56.2966 164.481 55.8672Z" fill="#030A06" />
  <path d="M256.582 51.0852C256.505 51.088 256.43 51.0934 256.354 51.103C252.462 51.5624 248.957 53.4463 246.51 56.5353C243.718 60.0619 242.76 64.5331 243.311 68.9553C243.762 72.8391 245.75 76.3806 248.829 78.7921C252.477 81.6262 257.102 82.346 261.609 81.7298C264.217 81.3727 268.136 80.124 269.803 77.9538C270.272 77.3444 270.508 76.6001 270.4 75.8313C270.324 75.2915 270.087 74.7748 269.642 74.4436C269.131 74.0632 268.45 74.0155 267.843 74.1341C267 74.2985 266.244 74.8199 265.527 75.3145C265.376 75.4187 265.226 75.5217 265.078 75.62C261.931 77.2558 258.44 78.0247 254.977 76.9028C252.514 76.0917 250.479 74.3236 249.334 71.9953C248.736 70.8052 248.439 69.5415 248.175 68.2451H263.03C263.648 68.2459 264.311 68.2672 264.993 68.289C266.754 68.3455 268.64 68.4059 270.194 68.1279C270.637 68.0488 271.06 67.8116 271.382 67.4981C272.112 66.7865 272.242 65.7791 272.22 64.8071C272.137 61.0856 270.389 57.4145 267.682 54.8967C264.556 51.989 260.786 50.8958 256.582 51.0852ZM257.04 55.7351C259.294 55.4707 261.568 56.0459 263.426 57.3532C265.647 58.9318 266.814 61.1729 267.281 63.8107C265.398 63.8334 263.513 63.8283 261.628 63.8231C260.686 63.8205 259.743 63.818 258.802 63.8189L248.355 63.8325C248.833 62.2253 249.388 60.7653 250.416 59.4185C252.072 57.2496 254.365 56.0868 257.04 55.7351Z" fill="#030A06" />
  <path d="M173.848 40.0369C179.424 39.9047 185.03 40.0274 190.609 40.0178C193.787 40.0124 197.846 39.7547 200.931 40.0723C201.427 40.1241 201.823 40.2646 202.2 40.5945C202.737 41.0634 203.095 41.7709 203.114 42.4879C203.13 43.1355 202.733 43.8784 202.266 44.3133C201.909 44.6432 201.483 44.7754 201.013 44.8517C199.729 45.0589 198.311 44.9376 197.008 44.9362L190.086 44.924L190.083 70.6147C190.093 72.7795 190.367 77.5016 190.041 79.3432C189.938 79.9212 189.729 80.4979 189.33 80.9409C188.902 81.4167 188.312 81.6566 187.677 81.6702C187.012 81.6852 186.363 81.5393 185.883 81.0554C185.319 80.4897 185.111 79.6568 185.042 78.8838C184.914 77.4579 185.031 75.9489 185.047 74.5162C185.072 72.3964 185.053 70.2753 185.051 68.1555L185.068 44.9199C182.765 44.9308 174.796 45.2975 173.165 44.5573C172.568 44.2873 172.194 43.8702 171.978 43.25C171.747 42.5902 171.852 41.8868 172.186 41.2815C172.576 40.5726 173.097 40.2686 173.848 40.0369Z" fill="#030A06" />
  <path d="M137.377 51.1039C139.448 50.9867 141.472 51.1189 143.483 51.6574C145.606 52.2258 148.854 53.4786 149.952 55.4934C150.254 56.0482 150.411 56.7121 150.198 57.3256C149.98 57.9513 149.386 58.4297 148.787 58.6751C147.041 59.3908 144.854 56.9848 143.211 56.3659C140.54 55.3585 137.327 55.4144 134.727 56.6276C132.339 57.7427 130.622 59.8543 129.733 62.3067C128.701 65.153 128.614 68.865 129.924 71.6391C131.139 74.2101 133.374 76.0068 136.025 76.9433C139.059 78.0161 142.219 77.4449 145.054 76.0858C145.933 75.6101 146.73 74.9762 147.731 74.769C148.249 74.6626 148.759 74.7185 149.2 75.0239C149.743 75.4001 150.182 76.1444 150.254 76.8015C150.322 77.4177 150.082 77.9848 149.7 78.4578C148.041 80.5135 144.35 81.5468 141.837 81.8549C137.477 82.3892 132.935 81.5154 129.445 78.7332C126.165 76.169 124.078 72.3738 123.669 68.2311C123.237 64.1034 124.448 59.9715 127.039 56.7298C129.665 53.5004 133.249 51.5456 137.377 51.1039Z" fill="#030A06" />
  <path d="M230.509 43.3048C230.596 43.3007 230.682 43.2966 230.768 43.2939C231.541 43.2694 232.318 43.4766 232.864 44.0464C234.168 45.4082 233.65 49.9968 233.635 51.8752C235.409 51.8861 239.728 51.334 241.059 52.5173C241.54 52.9467 241.736 53.5411 241.737 54.1749C241.74 54.7897 241.581 55.3786 241.124 55.8121C239.881 56.9899 235.392 56.5265 233.632 56.5155C233.648 60.2889 233.138 71.9196 234.301 74.7823C236.181 79.4117 240.256 75.3399 242.58 76.4345C243.077 76.669 243.485 77.1638 243.669 77.6791C243.931 78.4125 243.698 79.0682 243.396 79.7416C243.345 79.7989 243.293 79.8548 243.241 79.9107C241.837 81.3734 239.199 81.7251 237.262 81.7523C235.014 81.7851 232.889 81.4034 231.229 79.7403C230.029 78.5379 229.283 76.8885 228.918 75.2472C228.354 72.7116 228.587 69.9048 228.588 67.3189L228.595 56.5196C227.232 56.5183 225.867 56.5087 224.504 56.4869C224.279 56.3465 224.06 56.202 223.862 56.0234C223.323 55.5381 223.078 54.8143 223.059 54.1013C223.043 53.5042 223.225 52.9153 223.671 52.5023C224.772 51.4826 227.195 51.848 228.595 51.8725C228.591 49.9081 228.16 46.3856 228.902 44.6571C229.231 43.8896 229.77 43.6116 230.509 43.3048Z" fill="#030A06" />
  <path fill-rule="evenodd" clip-rule="evenodd" d="M122.356 42.5679C120.007 42.337 108.51 42.4188 104.522 42.4775C103.788 42.4882 103.108 42.5383 102.511 42.5823C102.003 42.6197 101.554 42.6527 101.184 42.6533C101.184 42.6533 99.5971 43.0258 99.0824 43.7408C98.7459 44.209 98.6309 44.8031 98.5506 45.3623C98.1245 48.3322 97.8751 51.3624 97.6266 54.3824C97.4958 55.9719 97.3652 57.5586 97.2092 59.1322L95.6966 74.3988C95.6565 74.8068 95.5867 75.3639 95.5074 75.9964C95.2512 78.0413 94.8963 80.8737 95.1259 82.0011C95.2529 82.6259 95.584 83.142 96.1365 83.4677C96.6816 83.7891 97.2993 83.9719 97.9199 84.0771L97.9256 84.0771C99.2082 84.0745 101.142 84.0945 103.303 84.1169C107.784 84.1633 119.178 84.2197 121.827 84.1058C122.356 84.0826 122.916 84.0376 123.414 83.8495C124.082 83.5959 124.632 83.112 124.896 82.4386C125.163 81.7611 125.104 81.0018 124.802 80.3474C124.498 79.6877 124.088 79.3359 123.4 79.1151H100.499C100.881 75.7434 101.223 72.3677 101.524 68.988L101.794 66.2408L101.82 65.9685C101.999 65.9708 102.235 65.9743 102.515 65.9786C104.847 66.0138 116.2 66.0955 117.646 65.8799C118.177 65.8008 118.673 65.6672 119.062 65.276C119.564 64.7689 119.773 64.0682 119.732 63.3648C119.696 62.7677 119.432 62.1174 118.978 61.7153C118.675 61.4481 118.3 61.275 117.899 61.2191C116.547 61.0224 106.454 61.0757 103.906 61.1084C103.223 61.1172 102.655 61.1245 102.288 61.125L103.449 47.429H115.807C116.438 47.4294 117.094 47.4504 117.76 47.4718C119.373 47.5234 121.045 47.577 122.545 47.3445C123.078 47.2627 123.536 47.0801 123.923 46.6915C124.397 46.2158 124.656 45.496 124.619 44.8281C124.582 44.1465 124.215 43.4976 123.682 43.0791C123.276 42.7601 122.865 42.617 122.356 42.5679Z" fill="#030A06" />
</svg>